<?xml version="1.0" standalone="no"?>
<!DOCTYPE svg PUBLIC "-//W3C//DTD SVG 20010904//EN"
 "http://www.w3.org/TR/2001/REC-SVG-20010904/DTD/svg10.dtd">
<svg version="1.0" xmlns="http://www.w3.org/2000/svg"
 width="992.000000pt" height="988.000000pt" viewBox="0 0 992.000000 988.000000"
 preserveAspectRatio="xMidYMid meet">

<g transform="translate(0.000000,988.000000) scale(0.100000,-0.100000)"
fill="#000000" stroke="none">
<path d="M4240 7623 c-66 -24 -151 -114 -173 -182 -46 -145 15 -301 142 -362
l51 -24 0 -151 0 -151 -79 -60 -79 -61 -197 198 -196 197 17 52 c45 139 -21
293 -154 358 -140 69 -322 9 -393 -129 -32 -63 -42 -130 -29 -195 37 -180 214
-283 390 -226 l51 17 196 -196 195 -195 -63 -81 -62 -82 -152 0 -151 0 -12 33
c-48 132 -228 210 -373 162 -75 -25 -158 -109 -182 -184 -48 -150 12 -295 151
-363 56 -28 77 -33 132 -32 115 2 213 64 266 167 l24 47 104 0 104 0 -33 -92
c-55 -156 -69 -243 -69 -428 0 -184 13 -269 69 -427 l32 -93 -107 0 -106 0
-13 36 c-7 20 -29 54 -49 76 -152 169 -423 119 -503 -92 -51 -136 7 -290 138
-367 61 -35 167 -43 244 -18 63 21 149 101 170 158 l13 37 153 0 152 0 32 -46
c17 -25 45 -62 62 -81 l30 -34 -197 -198 -198 -198 -52 19 c-97 38 -225 8
-303 -70 -146 -145 -102 -393 86 -484 63 -31 177 -32 242 -2 140 65 211 222
165 365 l-17 52 197 198 198 198 32 -28 c18 -16 53 -43 78 -60 l46 -32 0 -153
0 -152 -42 -19 c-59 -26 -123 -95 -147 -161 -41 -108 -20 -219 55 -304 63 -69
111 -92 205 -98 66 -4 84 -1 131 20 120 55 183 149 182 273 0 93 -30 161 -96
220 -27 24 -65 50 -84 57 l-34 12 0 103 c0 59 4 103 10 103 5 0 33 -9 62 -21
179 -70 449 -97 649 -65 57 10 150 33 207 52 57 19 106 34 108 34 2 0 4 -47 4
-104 l0 -104 -34 -12 c-49 -16 -117 -80 -146 -136 -37 -74 -40 -185 -8 -256
33 -72 66 -108 130 -143 48 -27 62 -30 143 -30 81 0 95 3 143 30 64 35 97 71
130 143 32 71 29 182 -8 256 -29 56 -97 120 -146 136 l-34 12 0 151 0 152 83
62 82 62 196 -195 195 -195 -19 -57 c-60 -179 65 -369 257 -389 117 -12 240
57 292 164 41 82 41 183 1 265 -64 131 -210 195 -352 153 l-58 -17 -194 194
c-106 106 -192 196 -190 201 1 4 27 41 57 82 l55 75 151 0 150 0 17 -37 c44
-101 137 -164 251 -171 101 -6 169 21 235 93 63 70 85 133 79 225 -14 197
-205 319 -398 255 -65 -22 -151 -102 -169 -158 l-13 -37 -104 0 c-57 0 -104 2
-104 4 0 2 16 51 35 108 44 132 65 264 65 408 0 144 -21 276 -65 408 -19 57
-35 106 -35 108 0 2 47 4 104 4 l104 0 12 -34 c15 -45 73 -111 125 -141 23
-14 70 -30 104 -36 53 -10 70 -8 129 10 88 26 142 73 183 156 29 60 31 71 27
142 -7 118 -60 202 -161 255 -60 33 -203 33 -263 1 -65 -35 -99 -68 -130 -128
l-29 -55 -150 0 -150 0 -57 75 c-32 42 -58 79 -58 83 0 4 87 94 194 201 l194
194 48 -17 c106 -36 226 -7 305 74 134 137 110 356 -49 459 -236 151 -535 -82
-443 -346 l17 -52 -195 -195 -196 -196 -82 62 -83 61 0 152 0 151 37 13 c57
21 137 107 158 170 26 78 17 181 -20 250 -109 200 -411 200 -520 0 -37 -69
-46 -172 -20 -250 21 -63 101 -149 158 -170 l37 -13 0 -107 0 -108 -58 24
c-256 104 -577 112 -859 20 -61 -19 -113 -35 -116 -35 -4 0 -7 45 -7 100 l0
100 48 24 c147 75 209 252 138 398 -29 62 -73 106 -139 140 -56 29 -174 34
-237 11z m178 -173 c34 -21 62 -72 62 -112 0 -61 -69 -128 -133 -128 -103 0
-166 132 -100 210 14 18 36 36 47 40 37 15 90 11 124 -10z m1202 4 c58 -35 81
-125 46 -179 -23 -35 -74 -65 -111 -65 -37 0 -88 30 -111 65 -35 53 -13 143
45 178 34 21 95 21 131 1z m-2119 -169 c41 -22 69 -71 69 -123 0 -94 -115
-154 -198 -102 -34 21 -62 72 -62 112 0 37 34 90 71 110 41 22 80 23 120 3z
m3014 1 c70 -30 96 -122 52 -187 -94 -139 -304 -5 -217 139 34 55 100 75 165
48z m-1380 -520 c474 -85 832 -439 920 -911 25 -131 17 -345 -18 -477 -47
-180 -142 -350 -272 -487 -497 -526 -1350 -451 -1750 154 -293 443 -233 1028
145 1405 167 168 367 272 604 315 96 18 274 18 371 1z m-1791 -397 c78 -61 70
-175 -15 -221 -42 -22 -71 -23 -115 -2 -123 59 -81 244 56 244 33 0 55 -6 74
-21z m3356 5 c87 -52 77 -191 -17 -230 -49 -21 -99 -10 -139 30 -40 40 -51 90
-30 139 28 68 122 98 186 61z m-3374 -1204 c84 -41 98 -145 30 -207 -30 -28
-43 -33 -86 -33 -43 0 -56 5 -86 33 -68 62 -54 165 29 206 52 26 60 26 113 1z
m3381 -7 c74 -49 69 -179 -9 -219 -42 -22 -105 -20 -137 4 -38 27 -64 86 -57
126 18 96 123 141 203 89z m-3207 -898 c64 -33 89 -111 57 -175 -17 -34 -74
-70 -111 -70 -67 0 -136 65 -136 128 0 95 106 160 190 117z m3021 0 c117 -61
71 -245 -61 -245 -68 0 -130 61 -130 128 0 98 104 161 191 117z m-2084 -197
c85 -85 27 -218 -96 -218 -37 0 -49 6 -82 39 -33 33 -39 45 -39 82 0 123 132
181 217 97z m1180 22 c62 -37 82 -101 54 -168 -27 -66 -121 -92 -186 -52 -56
34 -76 122 -40 176 22 34 74 64 110 64 17 0 44 -9 62 -20z"/>
<path d="M4568 6165 c-218 -110 -371 -193 -378 -204 -17 -32 -12 -76 11 -97
11 -10 69 -44 127 -74 l107 -55 5 -278 5 -278 25 -20 c255 -201 535 -237 804
-103 88 44 175 110 187 142 5 13 9 140 9 282 l0 260 40 20 c21 11 42 20 45 20
3 0 5 -35 5 -78 0 -69 3 -81 23 -100 30 -28 89 -30 116 -3 28 28 33 69 29 218
-3 114 -6 134 -23 153 -23 26 -727 380 -753 379 -9 0 -182 -83 -384 -184z
m627 -117 c135 -68 245 -126 245 -130 0 -5 -109 -62 -242 -129 l-243 -121
-247 123 c-137 68 -248 126 -248 129 0 4 474 246 487 249 2 1 113 -54 248
-121z m-245 -558 c11 0 92 36 180 80 88 44 162 80 165 80 3 0 4 -87 3 -192
l-3 -193 -55 -36 c-185 -122 -408 -117 -597 13 l-43 29 0 183 c0 100 3 185 6
189 4 3 78 -30 165 -74 87 -43 168 -79 179 -79z"/>
<path d="M2406 3533 c55 -88 82 -122 158 -201 147 -152 312 -241 531 -287 96
-20 273 -31 339 -21 42 7 46 9 34 24 -10 13 -8 13 9 -2 21 -18 25 -18 144 3
94 15 128 25 148 43 19 17 22 18 9 3 -16 -20 -15 -20 183 -20 l200 0 25 40
c13 22 24 43 24 47 0 11 -131 29 -225 30 -125 1 -143 0 -285 -23 -261 -41
-354 -46 -514 -28 -189 21 -304 55 -455 135 -82 43 -85 44 -105 27 -21 -18
-21 -18 -3 3 18 21 17 22 -47 73 -36 28 -95 88 -132 131 -37 44 -69 80 -71 80
-2 0 13 -26 33 -57z m1444 -366 c0 -2 -10 -12 -22 -23 l-23 -19 19 23 c18 21
26 27 26 19z m-415 -77 c10 -11 16 -20 13 -20 -3 0 -13 9 -23 20 -10 11 -16
20 -13 20 3 0 13 -9 23 -20z"/>
<path d="M7487 3520 c-31 -38 -90 -97 -132 -131 -65 -53 -73 -64 -63 -78 11
-14 11 -14 -3 -3 -13 10 -32 4 -110 -37 -274 -142 -537 -170 -964 -101 -135
22 -159 24 -150 11 3 -5 -8 -3 -25 6 -61 30 -327 -8 -469 -67 -57 -23 -161
-77 -161 -83 0 -1 19 -2 41 -2 37 0 57 -13 65 -42 0 -2 24 7 54 18 131 50 216
63 407 64 118 0 179 3 175 10 -3 6 1 5 9 -2 22 -18 232 -53 359 -59 178 -10
372 22 524 87 181 77 367 245 475 427 17 29 29 52 28 52 -2 0 -28 -31 -60 -70z
m-1372 -390 c10 -11 16 -20 13 -20 -3 0 -13 9 -23 20 -10 11 -16 20 -13 20 3
0 13 -9 23 -20z"/>
<path d="M7420 3555 c-53 -28 -132 -58 -213 -80 -38 -11 -55 -20 -50 -28 5 -9
3 -9 -8 -1 -10 8 -33 9 -79 2 -92 -13 -242 -3 -330 22 -116 33 -123 34 -169
10 -88 -45 -304 -67 -521 -53 -69 4 -149 7 -178 5 -49 -3 -52 -5 -40 -20 11
-15 10 -14 -8 1 -20 17 -25 17 -119 -4 -242 -52 -443 -188 -585 -394 -48 -70
-1 -45 65 34 125 150 310 262 508 308 59 14 129 17 382 18 330 0 388 7 507 57
46 20 46 20 130 -1 45 -11 92 -20 103 -20 11 0 43 -2 70 -6 67 -10 209 9 314
41 83 25 215 86 256 118 28 22 17 19 -35 -9z"/>
<path d="M2485 3555 c109 -89 410 -169 561 -150 49 6 55 9 42 21 -11 11 -48
16 -144 19 -71 2 -140 6 -154 8 -46 8 -224 69 -275 94 -28 13 -41 17 -30 8z"/>
<path d="M3248 3490 c-9 -6 -51 -18 -93 -28 -74 -18 -75 -19 -56 -36 19 -17
23 -17 106 4 l87 22 46 -20 c125 -53 280 -66 642 -54 102 4 245 -17 340 -48
52 -17 110 -17 110 0 0 24 -246 95 -306 88 -18 -2 -30 0 -28 4 3 5 -120 7
-273 6 -298 -1 -387 8 -472 51 -44 23 -76 26 -103 11z"/>
<path d="M4440 3285 c0 -7 81 -47 86 -43 2 2 -3 14 -12 26 -10 14 -26 22 -45
22 -16 0 -29 -2 -29 -5z"/>
<path d="M8033 3254 c-23 -19 -50 -37 -60 -39 -10 -2 -39 -13 -65 -25 -132
-59 -353 -76 -523 -41 l-89 19 -41 -27 c-117 -79 -246 -134 -363 -155 l-77
-14 61 -1 c88 -1 214 33 332 91 l103 50 82 -16 c100 -20 121 -20 111 -3 -6 10
-4 10 7 0 20 -20 164 -16 251 6 105 27 215 80 200 96 -4 5 -1 5 6 1 7 -5 21
-2 30 6 42 36 43 27 2 -16 -25 -26 -88 -79 -140 -118 -52 -39 -103 -80 -112
-91 -10 -10 -18 -14 -18 -7 0 7 -14 4 -37 -9 -294 -158 -748 -176 -1162 -46
-117 37 -261 74 -261 68 0 -4 8 -16 18 -27 9 -11 1 -7 -19 10 -34 29 -47 32
-152 44 -125 14 -289 9 -397 -12 l-65 -12 52 -6 c59 -6 93 -31 93 -68 0 -24 1
-25 58 -19 126 13 464 -34 600 -83 94 -35 282 -80 399 -95 146 -19 248 -19
382 1 105 15 302 73 331 98 8 7 41 25 73 40 31 15 57 32 57 37 0 5 5 9 12 9
48 0 300 255 372 378 13 22 -8 12 -51 -24z m-343 -334 c0 -5 -4 -10 -10 -10
-5 0 -10 5 -10 10 0 6 5 10 10 10 6 0 10 -4 10 -10z"/>
<path d="M1860 3265 c20 -25 89 -77 103 -79 7 -1 26 -12 41 -24 49 -38 180
-74 291 -79 98 -5 101 -5 124 21 l24 26 -102 0 c-116 0 -228 20 -316 56 -33
14 -65 26 -71 27 -6 2 -29 17 -51 35 -43 34 -64 42 -43 17z"/>
<path d="M1900 3190 c54 -72 139 -160 219 -227 75 -63 94 -72 107 -52 9 16
-38 62 -146 142 -52 39 -122 96 -155 126 l-59 56 34 -45z"/>
<path d="M4600 3207 c0 -18 13 -37 45 -63 71 -58 176 -190 218 -273 41 -83 42
-51 1 36 -47 99 -152 236 -226 294 l-38 31 0 -25z"/>
<path d="M2538 3151 c-59 -12 -84 -23 -105 -45 l-28 -28 56 7 c31 3 79 12 107
19 48 13 53 13 84 -9 94 -64 294 -125 403 -124 l60 0 -90 19 c-118 25 -205 60
-315 126 -49 30 -91 54 -92 53 -2 -1 -38 -9 -80 -18z"/>
<path d="M4270 3108 c-32 -53 -27 -62 53 -87 39 -13 116 -46 170 -74 l99 -51
18 24 c17 23 18 26 2 43 -41 46 -272 177 -311 177 -6 0 -20 -15 -31 -32z"/>
<path d="M5371 3010 c-21 -15 -57 -108 -46 -118 2 -2 13 1 24 8 15 7 21 20 21
43 0 18 7 43 16 55 21 30 15 35 -15 12z"/>
<path d="M3763 3006 c-62 -9 -89 -18 -110 -36 l-28 -25 20 24 c17 20 17 23 3
18 -9 -3 -33 -9 -52 -13 -20 -3 -33 -10 -30 -15 3 -5 -1 -6 -9 -4 -7 3 -65
-10 -128 -29 -261 -79 -495 -110 -717 -95 -120 8 -290 45 -382 84 l-61 26 -24
-23 c-14 -13 -25 -26 -25 -29 0 -3 24 -18 53 -34 l52 -28 -35 39 c-30 34 -28
33 15 -7 28 -26 64 -54 80 -62 102 -51 333 -97 483 -97 165 0 437 50 593 109
27 11 81 25 120 32 54 10 69 16 64 27 -4 11 -2 12 8 4 9 -8 39 -7 107 4 52 9
153 16 225 17 l130 2 6 35 c3 19 9 44 12 56 7 19 3 22 -39 28 -70 9 -238 5
-331 -8z m-147 -86 c0 -9 -7 -16 -16 -16 -9 0 -16 7 -16 16 0 9 7 16 16 16 9
0 16 -7 16 -16z m-56 -43 c0 -2 -10 -12 -22 -23 l-23 -19 19 23 c18 21 26 27
26 19z"/>
<path d="M5414 2985 c-8 -30 -1 -40 21 -31 10 3 15 15 13 28 -4 31 -26 34 -34
3z"/>
<path d="M4217 2968 c-4 -12 -7 -37 -7 -54 0 -32 0 -32 93 -54 50 -13 123 -36
161 -51 80 -34 96 -36 96 -10 0 11 2 25 5 33 10 26 -205 134 -306 153 -32 6
-37 4 -42 -17z"/>
<path d="M2209 2956 c25 -27 41 -33 41 -16 0 5 -15 17 -32 26 l-33 17 24 -27z"/>
<path d="M5575 2959 c-69 -27 -111 -79 -65 -79 11 0 39 17 63 38 23 22 51 44
62 50 33 19 -5 13 -60 -9z"/>
<path d="M5634 2916 c-56 -56 -45 -67 43 -41 55 17 71 36 47 60 -24 24 -53 18
-90 -19z"/>
<path d="M4651 2884 c-11 -25 -9 -29 26 -58 44 -37 57 -39 61 -9 3 20 -50 93
-67 93 -4 0 -13 -12 -20 -26z"/>
<path d="M5036 2858 c-13 -29 -26 -69 -30 -88 -3 -19 -3 -28 1 -20 3 8 21 48
39 88 18 39 28 72 23 72 -6 0 -21 -24 -33 -52z"/>
<path d="M5194 2854 c-67 -78 -80 -102 -58 -111 11 -4 32 10 66 44 44 44 49
54 46 88 l-3 38 -51 -59z"/>
<path d="M2150 2871 c0 -5 5 -13 10 -16 6 -3 10 -2 10 4 0 5 -4 13 -10 16 -5
3 -10 2 -10 -4z"/>
<path d="M7755 2870 c-3 -5 -2 -10 4 -10 5 0 13 5 16 10 3 6 2 10 -4 10 -5 0
-13 -4 -16 -10z"/>
<path d="M3925 2864 c-119 -14 -211 -27 -218 -31 -5 -3 2 -17 15 -32 22 -25
22 -25 -8 2 -29 26 -34 27 -75 18 -106 -25 -184 -52 -208 -73 -14 -13 -19 -15
-12 -5 17 22 18 22 -68 -8 -40 -13 -130 -37 -199 -52 -112 -23 -148 -27 -307
-26 -162 0 -190 3 -279 26 -55 15 -101 25 -103 23 -2 -1 18 -23 45 -48 43 -40
59 -48 143 -69 82 -20 118 -23 289 -23 224 -1 299 11 605 94 99 27 195 51 213
55 l34 7 -24 26 -23 27 30 -26 c29 -25 33 -26 100 -18 39 4 114 8 169 8 89 1
98 3 91 19 -4 9 -9 36 -12 58 -5 41 -6 42 -51 48 -45 6 -91 6 -147 0z m-535
-157 c0 -2 -10 -12 -22 -23 l-23 -19 19 23 c18 21 26 27 26 19z m-50 -50 c0
-2 -12 -14 -27 -28 l-28 -24 24 28 c23 25 31 32 31 24z"/>
<path d="M5347 2845 c-33 -23 -36 -29 -30 -58 3 -17 8 -34 10 -36 6 -7 83 72
83 85 0 30 -26 33 -63 9z"/>
<path d="M5820 2861 c-50 -5 -55 -8 -56 -31 0 -14 -4 -39 -8 -56 l-7 -31 168
-7 c215 -8 235 -11 479 -81 249 -72 357 -88 579 -89 177 0 211 2 295 23 52 13
102 29 110 36 8 7 20 10 27 8 21 -8 193 88 272 151 83 66 82 87 -1 34 -88 -56
-207 -106 -323 -135 -99 -24 -127 -27 -285 -27 -152 0 -192 4 -302 28 -69 14
-158 37 -197 51 -39 13 -71 22 -71 19 0 -3 -9 0 -21 6 -31 17 -179 60 -219 64
-19 2 -42 6 -50 9 -53 20 -304 38 -390 28z"/>
<path d="M2182 2838 c12 -35 285 -208 329 -208 31 0 -79 92 -150 125 -42 20
-97 50 -124 66 -53 32 -61 35 -55 17z"/>
<path d="M4210 2828 c0 -13 10 -40 23 -62 20 -36 28 -40 101 -58 l79 -20 49
23 c27 12 47 27 45 32 -4 13 -129 64 -200 82 -34 9 -70 18 -79 21 -14 4 -18 0
-18 -18z"/>
<path d="M5650 2836 c-48 -10 -55 -15 -58 -37 -2 -14 5 -36 16 -49 16 -20 21
-21 41 -10 13 6 32 31 42 55 11 24 25 46 32 48 21 9 -14 6 -73 -7z"/>
<path d="M5450 2820 c0 -13 11 -13 30 0 12 8 11 10 -7 10 -13 0 -23 -4 -23
-10z"/>
<path d="M4630 2788 c0 -20 29 -58 45 -58 28 0 24 18 -10 44 -22 17 -35 22
-35 14z"/>
<path d="M5455 2771 c-124 -56 -273 -179 -368 -304 -95 -125 -94 -135 4 -41
138 133 254 206 406 255 l72 23 -25 29 c-13 15 -24 35 -24 43 0 18 -15 17 -65
-5z"/>
<path d="M5197 2718 c-41 -35 -158 -175 -182 -218 -5 -8 34 26 86 75 52 50
109 100 127 110 21 13 32 27 32 42 0 36 -13 34 -63 -9z"/>
<path d="M4991 2714 c0 -11 3 -14 6 -6 3 7 2 16 -1 19 -3 4 -6 -2 -5 -13z"/>
<path d="M4511 2691 l-34 -28 56 -26 c103 -47 201 -118 302 -220 54 -55 91
-88 82 -73 -9 14 -25 38 -34 54 -29 45 -84 114 -137 170 -51 54 -176 152 -192
152 -5 0 -24 -13 -43 -29z"/>
<path d="M4704 2705 c-18 -14 -18 -16 16 -41 19 -15 75 -67 124 -117 76 -76
84 -82 55 -41 -38 57 -140 184 -161 202 -12 9 -19 9 -34 -3z"/>
<path d="M2045 2703 c-25 -6 -44 -23 -24 -22 24 1 86 28 64 27 -11 0 -29 -2
-40 -5z"/>
<path d="M4823 2703 c-7 -2 8 -31 39 -71 69 -92 75 -97 36 -26 -45 82 -61 103
-75 97z"/>
<path d="M7841 2706 c2 -1 20 -8 39 -14 32 -11 33 -10 16 3 -16 12 -69 23 -55
11z"/>
<path d="M1910 2671 c-54 -12 -69 -19 -53 -23 23 -6 121 17 138 33 11 11 10
11 -85 -10z"/>
<path d="M3803 2670 c-132 -20 -249 -53 -443 -123 -82 -29 -137 -43 -160 -41
-194 18 -513 44 -545 44 l-39 0 49 -52 50 -53 -60 56 -60 57 -260 21 c-143 12
-291 24 -329 27 l-68 6 -109 -108 c-60 -60 -109 -111 -109 -115 0 -3 134 -9
298 -12 163 -4 405 -10 536 -14 204 -5 238 -4 231 8 -8 12 -6 12 8 0 25 -20
221 -28 244 -10 9 8 14 9 10 3 -8 -14 164 -21 633 -29 179 -3 368 -8 420 -11
l95 -6 -25 29 -25 28 31 -27 c28 -26 36 -28 115 -28 207 0 481 -14 485 -24 2
-6 13 -37 24 -68 l21 -58 142 0 142 0 24 68 23 69 237 7 c130 3 342 8 471 11
786 18 2159 53 2347 61 l152 6 -96 118 c-85 104 -100 118 -122 114 -14 -2
-120 -11 -236 -19 -115 -9 -304 -24 -420 -35 -115 -10 -248 -22 -295 -25 -96
-7 -419 -34 -465 -40 -18 -2 -81 15 -155 41 -270 96 -496 143 -675 144 -100 0
-130 -7 -114 -26 20 -24 0 -29 -37 -9 -32 17 -41 18 -97 6 -210 -43 -418 -180
-551 -361 l-67 -90 -68 0 -68 0 -41 58 c-97 138 -211 239 -354 311 -79 40 -95
45 -161 45 -63 1 -79 5 -117 30 -41 27 -50 29 -169 32 -89 2 -162 -2 -248 -16z
m87 -35 c13 -14 21 -25 18 -25 -2 0 -15 11 -28 25 -13 14 -21 25 -18 25 2 0
15 -11 28 -25z m2120 -29 c0 -2 -8 -10 -17 -17 -16 -13 -17 -12 -4 4 13 16 21
21 21 13z m-1927 -42 c200 -4 329 -34 490 -116 53 -28 97 -53 97 -57 0 -3
-111 3 -247 16 -137 12 -266 22 -287 22 l-39 1 19 -22 c14 -17 11 -16 -14 5
-23 19 -45 27 -70 27 -45 0 -398 29 -431 36 -13 3 -21 7 -19 9 9 10 207 56
285 67 82 12 82 12 65 32 -17 21 -17 21 6 2 19 -17 41 -20 145 -22z m1997 -14
c111 -19 273 -63 259 -70 -8 -4 -117 -15 -244 -25 -128 -10 -242 -24 -258 -31
-16 -8 -25 -8 -21 -2 5 8 -18 9 -77 4 -196 -16 -426 -36 -459 -41 l-35 -4 25
21 c40 34 178 95 275 123 148 43 365 53 535 25z m2005 -20 c3 -5 1 -10 -4 -10
-6 0 -11 5 -11 10 0 6 2 10 4 10 3 0 8 -4 11 -10z m-4915 -43 c0 -2 -12 -14
-27 -28 l-28 -24 24 28 c23 25 31 32 31 24z m-420 -72 c13 -14 21 -25 18 -25
-2 0 -15 11 -28 25 -13 14 -21 25 -18 25 2 0 15 -11 28 -25z m360 12 c0 -2
-12 -14 -27 -28 l-28 -24 24 28 c23 25 31 32 31 24z m4070 -11 c0 -2 -8 -10
-17 -17 -16 -13 -17 -12 -4 4 13 16 21 21 21 13z m-1400 -40 c0 -2 -8 -10 -17
-17 -16 -13 -17 -12 -4 4 13 16 21 21 21 13z"/>
<path d="M5047 2648 c-59 -103 -59 -116 0 -36 55 75 56 78 39 78 -8 0 -25 -19
-39 -42z"/>
<path d="M7922 2685 c12 -13 140 -43 155 -38 10 4 -13 14 -58 24 -77 19 -106
23 -97 14z"/>
<path d="M1663 2512 c-52 -62 -93 -115 -91 -117 2 -2 32 -5 66 -6 l63 -2 110
109 c121 121 121 118 10 126 l-63 4 -95 -114z"/>
</g>
</svg>
